<svg width="140" height="60" viewBox="0 0 119 27" fill="none" xmlns="http://www.w3.org/2000/svg">
<g filter="url(#filter0_d)">
<path d="M24.5469 11.1113C24.5195 11.7051 24.3594 12.2305 24.0664 12.6875C23.7734 13.1406 23.3613 13.4922 22.8301 13.7422C22.3027 13.9922 21.6992 14.1172 21.0195 14.1172C19.8984 14.1172 19.0156 13.752 18.3711 13.0215C17.7266 12.291 17.4043 11.2598 17.4043 9.92773V9.50586C17.4043 8.66992 17.5488 7.93945 17.8379 7.31445C18.1309 6.68555 18.5508 6.20117 19.0977 5.86133C19.6445 5.51758 20.2773 5.3457 20.9961 5.3457C22.0312 5.3457 22.8633 5.61914 23.4922 6.16602C24.1211 6.70898 24.4785 7.45898 24.5645 8.41602H22.5137C22.498 7.89648 22.3672 7.52344 22.1211 7.29688C21.875 7.07031 21.5 6.95703 20.9961 6.95703C20.4844 6.95703 20.1094 7.14844 19.8711 7.53125C19.6328 7.91406 19.5078 8.52539 19.4961 9.36523V9.96875C19.4961 10.8789 19.6094 11.5293 19.8359 11.9199C20.0664 12.3105 20.4609 12.5059 21.0195 12.5059C21.4922 12.5059 21.8535 12.3945 22.1035 12.1719C22.3535 11.9492 22.4863 11.5957 22.502 11.1113H24.5469ZM28.8317 14H26.8512V5H28.8317V14ZM31.1244 10.7715C31.1244 10.1387 31.2474 9.57617 31.4935 9.08398C31.7396 8.58789 32.0931 8.20703 32.5541 7.94141C33.015 7.67578 33.556 7.54297 34.1771 7.54297C35.1263 7.54297 35.8744 7.83789 36.4213 8.42773C36.9681 9.01367 37.2416 9.8125 37.2416 10.8242V10.8945C37.2416 11.8828 36.9662 12.668 36.4154 13.25C35.8685 13.8281 35.1263 14.1172 34.1888 14.1172C33.2865 14.1172 32.5619 13.8477 32.015 13.3086C31.4681 12.7656 31.1732 12.0312 31.1302 11.1055L31.1244 10.7715ZM33.099 10.8945C33.099 11.4805 33.1908 11.9102 33.3744 12.1836C33.558 12.457 33.8295 12.5938 34.1888 12.5938C34.892 12.5938 35.2513 12.0527 35.267 10.9707V10.7715C35.267 9.63477 34.9037 9.06641 34.1771 9.06641C33.517 9.06641 33.1595 9.55664 33.1048 10.5371L33.099 10.8945ZM41.2452 7.66016L41.3096 8.4043C41.7471 7.83008 42.3506 7.54297 43.1202 7.54297C43.7803 7.54297 44.2725 7.74023 44.5967 8.13477C44.9248 8.5293 45.0948 9.12305 45.1065 9.91602V14H43.126V9.99805C43.126 9.67773 43.0616 9.44336 42.9327 9.29492C42.8038 9.14258 42.5694 9.06641 42.2295 9.06641C41.8428 9.06641 41.5557 9.21875 41.3682 9.52344V14H39.3936V7.66016H41.2452ZM50.5925 14.1172C49.6198 14.1172 48.8327 13.8281 48.2312 13.25C47.6296 12.668 47.3288 11.9121 47.3288 10.9824V10.8184C47.3288 10.1699 47.448 9.59766 47.6863 9.10156C47.9284 8.60547 48.28 8.22266 48.7409 7.95312C49.2019 7.67969 49.7488 7.54297 50.3816 7.54297C51.2722 7.54297 51.9753 7.82031 52.4909 8.375C53.0066 8.92578 53.2644 9.69531 53.2644 10.6836V11.4512H49.3386C49.4089 11.8066 49.5632 12.0859 49.8015 12.2891C50.0398 12.4922 50.3484 12.5938 50.7273 12.5938C51.3523 12.5938 51.8405 12.375 52.1921 11.9375L53.0945 13.0039C52.8484 13.3438 52.4988 13.6152 52.0456 13.8184C51.5964 14.0176 51.112 14.1172 50.5925 14.1172ZM50.3698 9.06641C49.7917 9.06641 49.448 9.44922 49.3386 10.2148H51.3308V10.0625C51.3386 9.74609 51.2585 9.50195 51.0905 9.33008C50.9226 9.1543 50.6823 9.06641 50.3698 9.06641ZM62.1723 7.05664H59.6117V14H57.5551V7.05664H55.0414V5.46875H62.1723V7.05664ZM68.5079 12.4062H65.6895L65.1973 14H63.0001L66.129 5.46875H68.0626L71.2149 14H69.0059L68.5079 12.4062ZM66.1817 10.8184H68.0157L67.0958 7.85938L66.1817 10.8184ZM77.5623 11.7324C77.5623 11.4316 77.4548 11.1973 77.24 11.0293C77.0291 10.8613 76.656 10.6875 76.1209 10.5078C75.5857 10.3281 75.1482 10.1543 74.8084 9.98633C73.7029 9.44336 73.1502 8.69727 73.1502 7.74805C73.1502 7.27539 73.2869 6.85938 73.5603 6.5C73.8377 6.13672 74.2283 5.85547 74.7322 5.65625C75.2361 5.45312 75.8025 5.35156 76.4314 5.35156C77.0447 5.35156 77.5935 5.46094 78.0779 5.67969C78.5662 5.89844 78.9451 6.21094 79.2146 6.61719C79.4841 7.01953 79.6189 7.48047 79.6189 8H77.5681C77.5681 7.65234 77.4607 7.38281 77.2459 7.19141C77.0349 7 76.7478 6.9043 76.3845 6.9043C76.0173 6.9043 75.7263 6.98633 75.5115 7.15039C75.3005 7.31055 75.1951 7.51562 75.1951 7.76562C75.1951 7.98438 75.3123 8.18359 75.5466 8.36328C75.781 8.53906 76.1931 8.72266 76.783 8.91406C77.3728 9.10156 77.8572 9.30469 78.2361 9.52344C79.158 10.0547 79.6189 10.7871 79.6189 11.7207C79.6189 12.4668 79.3377 13.0527 78.7752 13.4785C78.2127 13.9043 77.4412 14.1172 76.4607 14.1172C75.7693 14.1172 75.1423 13.9941 74.5798 13.748C74.0213 13.498 73.5994 13.1582 73.3142 12.7285C73.033 12.2949 72.8923 11.7969 72.8923 11.2344H74.9548C74.9548 11.6914 75.072 12.0293 75.3064 12.248C75.5447 12.4629 75.9295 12.5703 76.4607 12.5703C76.8005 12.5703 77.0681 12.498 77.2634 12.3535C77.4627 12.2051 77.5623 11.998 77.5623 11.7324ZM84.894 10.8242L84.0502 11.75V14H81.9936V5.46875H84.0502V9.23047L84.7651 8.14648L86.6049 5.46875H89.1479L86.2651 9.24219L89.1479 14H86.7104L84.894 10.8242ZM95.8351 12.4062H93.0167L92.5245 14H90.3273L93.4562 5.46875H95.3898L98.5421 14H96.3331L95.8351 12.4062ZM93.5089 10.8184H95.3429L94.423 7.85938L93.5089 10.8184ZM100.489 14V5.46875H103.237C103.991 5.46875 104.669 5.64062 105.27 5.98438C105.872 6.32422 106.341 6.80664 106.677 7.43164C107.016 8.05273 107.188 8.75 107.192 9.52344V9.91602C107.192 10.6973 107.026 11.3984 106.694 12.0195C106.366 12.6367 105.901 13.1211 105.3 13.4727C104.702 13.8203 104.034 13.9961 103.296 14H100.489ZM102.546 7.05664V12.418H103.261C103.85 12.418 104.304 12.209 104.62 11.791C104.936 11.3691 105.095 10.7441 105.095 9.91602V9.54688C105.095 8.72266 104.936 8.10156 104.62 7.68359C104.304 7.26562 103.843 7.05664 103.237 7.05664H102.546ZM114.858 10.3848H111.624V12.418H115.444V14H109.567V5.46875H115.456V7.05664H111.624V8.85547H114.858V10.3848ZM17.311 20.1167C17.311 19.7544 17.3817 19.4285 17.5229 19.1392C17.6665 18.8498 17.8647 18.6265 18.1177 18.4692C18.3729 18.312 18.6634 18.2334 18.9893 18.2334C19.4928 18.2334 19.8996 18.4077 20.2095 18.7563C20.5216 19.105 20.6777 19.5687 20.6777 20.1475V20.1919C20.6777 20.5519 20.6082 20.8755 20.4692 21.1626C20.3325 21.4474 20.1354 21.6696 19.8779 21.8291C19.6227 21.9886 19.3288 22.0684 18.9961 22.0684C18.4948 22.0684 18.0881 21.894 17.7759 21.5454C17.466 21.1968 17.311 20.7354 17.311 20.1611V20.1167ZM17.9468 20.1919C17.9468 20.6021 18.0413 20.9313 18.2305 21.1797C18.4219 21.4281 18.6771 21.5522 18.9961 21.5522C19.3174 21.5522 19.5726 21.4269 19.7617 21.1763C19.9508 20.9233 20.0454 20.5701 20.0454 20.1167C20.0454 19.7111 19.9486 19.383 19.7549 19.1323C19.5635 18.8794 19.3083 18.7529 18.9893 18.7529C18.6771 18.7529 18.4253 18.8771 18.2339 19.1255C18.0425 19.3739 17.9468 19.7293 17.9468 20.1919ZM23.8183 18.8691C23.7226 18.8532 23.6189 18.8452 23.5073 18.8452C23.0926 18.8452 22.8111 19.0218 22.663 19.375V22H22.0307V18.3018H22.6459L22.6562 18.729C22.8635 18.3986 23.1575 18.2334 23.538 18.2334C23.6611 18.2334 23.7545 18.2493 23.8183 18.2812V18.8691ZM24.744 20.1201C24.744 19.5436 24.8773 19.0856 25.1439 18.7461C25.4105 18.4043 25.7637 18.2334 26.2035 18.2334C26.6547 18.2334 27.0067 18.3929 27.2596 18.7119L27.2904 18.3018H27.868V21.9111C27.868 22.3896 27.7256 22.7668 27.4408 23.0425C27.1582 23.3182 26.7777 23.4561 26.2992 23.4561C26.0326 23.4561 25.7717 23.3991 25.5165 23.2852C25.2613 23.1712 25.0665 23.0151 24.932 22.8169L25.2601 22.4375C25.5313 22.7725 25.8628 22.9399 26.2548 22.9399C26.5624 22.9399 26.8016 22.8534 26.9725 22.6802C27.1457 22.507 27.2323 22.2632 27.2323 21.9487V21.6309C26.9794 21.9225 26.6342 22.0684 26.1967 22.0684C25.7637 22.0684 25.4128 21.894 25.1439 21.5454C24.8773 21.1968 24.744 20.7217 24.744 20.1201ZM25.3798 20.1919C25.3798 20.6089 25.4652 20.937 25.6361 21.1763C25.807 21.4132 26.0463 21.5317 26.3539 21.5317C26.7526 21.5317 27.0455 21.3506 27.2323 20.9883V19.2998C27.0386 18.9466 26.7481 18.77 26.3607 18.77C26.0531 18.77 25.8127 18.8896 25.6395 19.1289C25.4664 19.3682 25.3798 19.7225 25.3798 20.1919ZM31.6683 22C31.6318 21.9271 31.6022 21.7972 31.5794 21.6104C31.2855 21.9157 30.9346 22.0684 30.5267 22.0684C30.1621 22.0684 29.8625 21.9658 29.6278 21.7607C29.3953 21.5534 29.2791 21.2913 29.2791 20.9746C29.2791 20.5895 29.425 20.291 29.7166 20.0791C30.0106 19.8649 30.423 19.7578 30.9539 19.7578H31.5692V19.4673C31.5692 19.2463 31.5031 19.0708 31.3709 18.9409C31.2388 18.8088 31.0439 18.7427 30.7864 18.7427C30.5609 18.7427 30.3717 18.7996 30.2191 18.9136C30.0664 19.0275 29.9901 19.1654 29.9901 19.3271H29.3543C29.3543 19.1426 29.4193 18.9648 29.5491 18.7939C29.6813 18.6208 29.859 18.484 30.0823 18.3838C30.3079 18.2835 30.5552 18.2334 30.824 18.2334C31.2502 18.2334 31.584 18.3405 31.8255 18.5547C32.067 18.7666 32.1924 19.0594 32.2015 19.4331V21.1353C32.2015 21.4748 32.2448 21.7448 32.3314 21.9453V22H31.6683ZM30.619 21.5181C30.8172 21.5181 31.0052 21.4668 31.1829 21.3643C31.3607 21.2617 31.4894 21.1284 31.5692 20.9644V20.2056H31.0736C30.2988 20.2056 29.9114 20.4323 29.9114 20.8857C29.9114 21.084 29.9775 21.2389 30.1097 21.3506C30.2418 21.4622 30.4116 21.5181 30.619 21.5181ZM34.3508 18.3018L34.3713 18.7666C34.6539 18.4111 35.023 18.2334 35.4788 18.2334C36.2603 18.2334 36.6546 18.6743 36.6614 19.5562V22H36.0291V19.5527C36.0268 19.2861 35.9653 19.089 35.8445 18.9614C35.726 18.8338 35.5403 18.77 35.2874 18.77C35.0823 18.77 34.9023 18.8247 34.7473 18.9341C34.5924 19.0435 34.4716 19.187 34.385 19.3647V22H33.7527V18.3018H34.3508ZM38.862 22H38.2297V18.3018H38.862V22ZM38.1784 17.3208C38.1784 17.2183 38.2092 17.1317 38.2707 17.061C38.3345 16.9904 38.4279 16.9551 38.551 16.9551C38.674 16.9551 38.7674 16.9904 38.8312 17.061C38.8951 17.1317 38.927 17.2183 38.927 17.3208C38.927 17.4233 38.8951 17.5088 38.8312 17.5771C38.7674 17.6455 38.674 17.6797 38.551 17.6797C38.4279 17.6797 38.3345 17.6455 38.2707 17.5771C38.2092 17.5088 38.1784 17.4233 38.1784 17.3208ZM41.0319 21.4839H43.1954V22H40.2594V21.5352L42.2999 18.8247H40.2902V18.3018H43.0929V18.7495L41.0319 21.4839ZM45.9498 22.0684C45.4485 22.0684 45.0406 21.9043 44.7262 21.5762C44.4117 21.2458 44.2545 20.8049 44.2545 20.2534V20.1372C44.2545 19.7703 44.324 19.4434 44.463 19.1562C44.6042 18.8669 44.8002 18.6413 45.0509 18.4795C45.3038 18.3154 45.5772 18.2334 45.8712 18.2334C46.352 18.2334 46.7257 18.3918 46.9923 18.7085C47.2589 19.0252 47.3922 19.4787 47.3922 20.0688V20.332H44.8868C44.8959 20.6966 45.0019 20.9917 45.2047 21.2173C45.4097 21.4406 45.6695 21.5522 45.984 21.5522C46.2073 21.5522 46.3964 21.5067 46.5513 21.4155C46.7063 21.3244 46.8419 21.2036 46.9581 21.0532L47.3443 21.354C47.0344 21.8302 46.5696 22.0684 45.9498 22.0684ZM45.8712 18.7529C45.616 18.7529 45.4018 18.8464 45.2286 19.0332C45.0554 19.2178 44.9483 19.4775 44.9073 19.8125H46.7598V19.7646C46.7416 19.4434 46.655 19.195 46.5001 19.0195C46.3451 18.8418 46.1355 18.7529 45.8712 18.7529ZM53.2666 22C53.2301 21.9271 53.2005 21.7972 53.1777 21.6104C52.8838 21.9157 52.5328 22.0684 52.125 22.0684C51.7604 22.0684 51.4607 21.9658 51.226 21.7607C50.9936 21.5534 50.8774 21.2913 50.8774 20.9746C50.8774 20.5895 51.0232 20.291 51.3149 20.0791C51.6088 19.8649 52.0213 19.7578 52.5522 19.7578H53.1674V19.4673C53.1674 19.2463 53.1014 19.0708 52.9692 18.9409C52.837 18.8088 52.6422 18.7427 52.3847 18.7427C52.1591 18.7427 51.97 18.7996 51.8173 18.9136C51.6647 19.0275 51.5883 19.1654 51.5883 19.3271H50.9526C50.9526 19.1426 51.0175 18.9648 51.1474 18.7939C51.2796 18.6208 51.4573 18.484 51.6806 18.3838C51.9062 18.2835 52.1534 18.2334 52.4223 18.2334C52.8484 18.2334 53.1823 18.3405 53.4238 18.5547C53.6653 18.7666 53.7907 19.0594 53.7998 19.4331V21.1353C53.7998 21.4748 53.8431 21.7448 53.9296 21.9453V22H53.2666ZM52.2172 21.5181C52.4155 21.5181 52.6035 21.4668 52.7812 21.3643C52.9589 21.2617 53.0877 21.1284 53.1674 20.9644V20.2056H52.6718C51.8971 20.2056 51.5097 20.4323 51.5097 20.8857C51.5097 21.084 51.5758 21.2389 51.708 21.3506C51.8401 21.4622 52.0099 21.5181 52.2172 21.5181ZM55.9491 18.3018L55.9696 18.7666C56.2522 18.4111 56.6213 18.2334 57.077 18.2334C57.8586 18.2334 58.2528 18.6743 58.2597 19.5562V22H57.6273V19.5527C57.6251 19.2861 57.5635 19.089 57.4428 18.9614C57.3243 18.8338 57.1386 18.77 56.8856 18.77C56.6806 18.77 56.5006 18.8247 56.3456 18.9341C56.1907 19.0435 56.0699 19.187 55.9833 19.3647V22H55.351V18.3018H55.9491ZM60.9832 21.0737L61.8446 18.3018H62.5213L61.0345 22.5708C60.8044 23.186 60.4386 23.4937 59.9373 23.4937L59.8177 23.4834L59.5819 23.439V22.9263L59.7528 22.9399C59.967 22.9399 60.1333 22.8966 60.2518 22.8101C60.3726 22.7235 60.4717 22.5651 60.5492 22.335L60.6893 21.959L59.37 18.3018H60.0604L60.9832 21.0737ZM64.5066 17.4062V18.3018H65.1971V18.7905H64.5066V21.084C64.5066 21.2321 64.5374 21.3438 64.5989 21.4189C64.6604 21.4919 64.7652 21.5283 64.9134 21.5283C64.9863 21.5283 65.0865 21.5146 65.2141 21.4873V22C65.0478 22.0456 64.886 22.0684 64.7288 22.0684C64.4462 22.0684 64.2332 21.9829 64.0896 21.812C63.9461 21.6411 63.8743 21.3984 63.8743 21.084V18.7905H63.201V18.3018H63.8743V17.4062H64.5066ZM67.1311 18.7495C67.4113 18.4054 67.7759 18.2334 68.2248 18.2334C69.0064 18.2334 69.4006 18.6743 69.4074 19.5562V22H68.7751V19.5527C68.7728 19.2861 68.7113 19.089 68.5905 18.9614C68.4721 18.8338 68.2863 18.77 68.0334 18.77C67.8283 18.77 67.6483 18.8247 67.4934 18.9341C67.3384 19.0435 67.2177 19.187 67.1311 19.3647V22H66.4987V16.75H67.1311V18.7495ZM71.6012 22H70.9689V18.3018H71.6012V22ZM70.9176 17.3208C70.9176 17.2183 70.9484 17.1317 71.0099 17.061C71.0737 16.9904 71.1671 16.9551 71.2902 16.9551C71.4132 16.9551 71.5067 16.9904 71.5705 17.061C71.6343 17.1317 71.6662 17.2183 71.6662 17.3208C71.6662 17.4233 71.6343 17.5088 71.5705 17.5771C71.5067 17.6455 71.4132 17.6797 71.2902 17.6797C71.1671 17.6797 71.0737 17.6455 71.0099 17.5771C70.9484 17.5088 70.9176 17.4233 70.9176 17.3208ZM73.7745 18.3018L73.795 18.7666C74.0776 18.4111 74.4467 18.2334 74.9024 18.2334C75.684 18.2334 76.0782 18.6743 76.0851 19.5562V22H75.4527V19.5527C75.4505 19.2861 75.3889 19.089 75.2682 18.9614C75.1497 18.8338 74.964 18.77 74.711 18.77C74.506 18.77 74.3259 18.8247 74.171 18.9341C74.016 19.0435 73.8953 19.187 73.8087 19.3647V22H73.1764V18.3018H73.7745ZM77.4483 20.1201C77.4483 19.5436 77.5816 19.0856 77.8482 18.7461C78.1148 18.4043 78.468 18.2334 78.9078 18.2334C79.3589 18.2334 79.711 18.3929 79.9639 18.7119L79.9947 18.3018H80.5723V21.9111C80.5723 22.3896 80.4299 22.7668 80.1451 23.0425C79.8625 23.3182 79.482 23.4561 79.0035 23.4561C78.7369 23.4561 78.4759 23.3991 78.2207 23.2852C77.9655 23.1712 77.7707 23.0151 77.6363 22.8169L77.9644 22.4375C78.2356 22.7725 78.5671 22.9399 78.959 22.9399C79.2666 22.9399 79.5059 22.8534 79.6768 22.6802C79.85 22.507 79.9366 22.2632 79.9366 21.9487V21.6309C79.6836 21.9225 79.3384 22.0684 78.9009 22.0684C78.468 22.0684 78.1171 21.894 77.8482 21.5454C77.5816 21.1968 77.4483 20.7217 77.4483 20.1201ZM78.084 20.1919C78.084 20.6089 78.1695 20.937 78.3404 21.1763C78.5113 21.4132 78.7505 21.5317 79.0581 21.5317C79.4569 21.5317 79.7497 21.3506 79.9366 20.9883V19.2998C79.7429 18.9466 79.4523 18.77 79.065 18.77C78.7574 18.77 78.517 18.8896 78.3438 19.1289C78.1706 19.3682 78.084 19.7225 78.084 20.1919Z" fill="white"/>
</g>
<path d="M13 0V27" stroke="white"/>
<path d="M8 7H0V11M8 22H3" stroke="white"/>
<path d="M5.5 25.5H11" stroke="#8D7A7A" stroke-linecap="round" stroke-linejoin="bevel"/>
<path d="M8 4H3V22L5.5 25L8 22V4Z" stroke="white" stroke-linecap="round" stroke-linejoin="round"/>
<defs>
<filter id="filter0_d" x="16.311" y="4" width="104.145" height="24.4937" filterUnits="userSpaceOnUse" color-interpolation-filters="sRGB">
<feFlood flood-opacity="0" result="BackgroundImageFix"/>
<feColorMatrix in="SourceAlpha" type="matrix" values="0 0 0 0 0 0 0 0 0 0 0 0 0 0 0 0 0 0 127 0"/>
<feOffset dx="2" dy="2"/>
<feGaussianBlur stdDeviation="1.5"/>
<feColorMatrix type="matrix" values="0 0 0 0 0 0 0 0 0 0 0 0 0 0 0 0 0 0 0.5 0"/>
<feBlend mode="normal" in2="BackgroundImageFix" result="effect1_dropShadow"/>
<feBlend mode="normal" in="SourceGraphic" in2="effect1_dropShadow" result="shape"/>
</filter>
</defs>
</svg>
